<svg height="511pt" viewBox="-1 1 511 511.99899" width="511pt" xmlns="http://www.w3.org/2000/svg"><path d="m501.609375 43.675781v255.894531c0 19.949219-16.164063 36.125-36.109375 36.125h-421.328125c-19.949219 0-36.113281-16.171874-36.113281-36.125v-255.894531c0-19.949219 16.164062-36.121093 36.113281-36.121093h421.328125c19.949219 0 36.109375 16.171874 36.109375 36.121093zm0 0" fill="#b4d2d7"/><path d="m501.609375 43.675781v34.605469h-493.550781v-34.605469c0-19.949219 16.164062-36.121093 36.113281-36.121093h421.328125c19.949219 0 36.109375 16.171874 36.109375 36.121093zm0 0" fill="#4c5072"/><path d="m58.894531 42.917969c0 7.03125-5.699219 12.730469-12.726562 12.730469-7.03125 0-12.730469-5.699219-12.730469-12.730469 0-7.027344 5.699219-12.726563 12.730469-12.726563 7.027343 0 12.726562 5.699219 12.726562 12.726563zm0 0" fill="#b4d2d7"/><path d="m107.359375 42.917969c0 7.03125-5.699219 12.730469-12.730469 12.730469s-12.730468-5.699219-12.730468-12.730469c0-7.027344 5.699218-12.726563 12.730468-12.726563s12.730469 5.699219 12.730469 12.726563zm0 0" fill="#b4e7fd"/><path d="m155.824219 42.917969c0 7.03125-5.699219 12.730469-12.730469 12.730469s-12.730469-5.699219-12.730469-12.730469c0-7.027344 5.699219-12.726563 12.730469-12.726563s12.730469 5.699219 12.730469 12.726563zm0 0" fill="#ff435e"/><path d="m474.753906 153.953125v311.574219c0 19.949218-16.164062 36.121094-36.113281 36.121094h-146.433594c-19.949219 0-36.113281-16.171876-36.113281-36.121094v-311.574219c0-19.945313 16.164062-36.121094 36.113281-36.121094h146.433594c19.949219 0 36.113281 16.175781 36.113281 36.121094zm0 0" fill="#e1ebf0"/><path d="m474.753906 153.953125v34.605469h-218.660156v-34.605469c0-19.945313 16.164062-36.121094 36.113281-36.121094h146.433594c19.949219 0 36.113281 16.175781 36.113281 36.121094zm0 0" fill="#4c5072"/><path d="m306.933594 153.195312c0 7.03125-5.699219 12.730469-12.730469 12.730469s-12.730469-5.699219-12.730469-12.730469c0-7.027343 5.699219-12.730468 12.730469-12.730468s12.730469 5.703125 12.730469 12.730468zm0 0" fill="#b4d2d7"/><path d="m355.394531 153.195312c0 7.03125-5.699219 12.730469-12.730469 12.730469-7.027343 0-12.726562-5.699219-12.726562-12.730469 0-7.027343 5.699219-12.730468 12.726562-12.730468 7.03125 0 12.730469 5.703125 12.730469 12.730468zm0 0" fill="#b4e7fd"/><path d="m403.859375 153.195312c0 7.03125-5.699219 12.730469-12.730469 12.730469s-12.730468-5.699219-12.730468-12.730469c0-7.027343 5.699218-12.730468 12.730468-12.730468s12.730469 5.703125 12.730469 12.730468zm0 0" fill="#ff435e"/><path d="m207.796875 131.132812v91.703126c0 9.910156-8.03125 17.949218-17.941406 17.949218h-136.28125c-6.84375 0-12.785157-3.832031-15.8125-9.464844-1.359375-2.523437-2.128907-5.414062-2.128907-8.484374v-91.703126c0-9.910156 8.03125-17.949218 17.941407-17.949218h136.277343c9.914063 0 17.945313 8.039062 17.945313 17.949218zm0 0" fill="#d5f1fe"/><path d="m207.796875 220.671875v2.164063c0 9.910156-8.03125 17.949218-17.941406 17.949218h-104.996094l59.246094-89.175781c1.726562-2.597656 4.304687-4.136719 7.042969-4.605469 3.96875-.691406 8.257812.84375 10.761718 4.605469zm0 0" fill="#f9d35a"/><path d="m151.148438 147.003906-21.902344 93.78125h-44.386719l59.246094-89.175781c1.726562-2.597656 4.304687-4.136719 7.042969-4.605469zm0 0" fill="#f7aa5c"/><path d="m127.765625 240.785156h-74.191406c-6.84375 0-12.785157-3.832031-15.8125-9.464844l32.957031-49.601562c2.644531-3.976562 7.296875-5.46875 11.4375-4.46875 2.484375.601562 4.785156 2.085938 6.363281 4.46875zm0 0" fill="#f9d35a"/><path d="m82.15625 177.25-13.8125 63.535156h-14.769531c-6.84375 0-12.785157-3.832031-15.8125-9.464844l32.957031-49.601562c2.648438-3.976562 7.296875-5.46875 11.4375-4.46875zm0 0" fill="#f7aa5c"/><path d="m115.546875 144.4375c0 6.988281-5.664063 12.652344-12.652344 12.652344-6.984375 0-12.648437-5.664063-12.648437-12.652344 0-6.984375 5.664062-12.648438 12.648437-12.648438 6.988281 0 12.652344 5.664063 12.652344 12.648438zm0 0" fill="#ff435e"/><path d="m451.507812 235.1875v91.699219c0 9.914062-8.03125 17.949219-17.945312 17.949219h-136.277344c-6.84375 0-12.789062-3.828126-15.816406-9.460938-1.355469-2.527344-2.128906-5.417969-2.128906-8.488281v-91.699219c0-9.914062 8.03125-17.953125 17.945312-17.953125h136.277344c9.914062 0 17.945312 8.039063 17.945312 17.953125zm0 0" fill="#d5f1fe"/><path d="m451.507812 324.726562v2.160157c0 9.914062-8.03125 17.949219-17.945312 17.949219h-104.996094l59.246094-89.171876c1.726562-2.601562 4.304688-4.140624 7.042969-4.609374 3.96875-.691407 8.257812.847656 10.765625 4.609374zm0 0" fill="#f9d35a"/><path d="m394.855469 251.054688-21.902344 93.78125h-44.386719l59.246094-89.171876c1.726562-2.601562 4.304688-4.140624 7.042969-4.609374zm0 0" fill="#f7aa5c"/><path d="m371.472656 344.835938h-74.1875c-6.84375 0-12.789062-3.828126-15.816406-9.460938l32.957031-49.605469c2.648438-3.976562 7.296875-5.46875 11.441407-4.46875 2.484374.601563 4.78125 2.085938 6.363281 4.46875zm0 0" fill="#f9d35a"/><path d="m325.867188 281.300781-13.8125 63.535157h-14.769532c-6.84375 0-12.789062-3.828126-15.816406-9.460938l32.957031-49.605469c2.648438-3.976562 7.296875-5.46875 11.441407-4.46875zm0 0" fill="#f7aa5c"/><path d="m359.257812 248.492188c0 6.984374-5.664062 12.648437-12.652343 12.648437s-12.652344-5.664063-12.652344-12.648437c0-6.988282 5.664063-12.652344 12.652344-12.652344s12.652343 5.664062 12.652343 12.652344zm0 0" fill="#ff435e"/><path d="m501.617188 102.308594c4.175781 0 7.554687-3.382813 7.554687-7.554688v-51.078125c0-24.082031-19.589844-43.675781-43.671875-43.675781h-421.324219c-24.082031 0-43.671875 19.59375-43.671875 43.675781v34.546875c0 .019532-.003906.039063-.003906.058594s.003906.039062.003906.058594v221.230468c0 24.085938 19.589844 43.675782 43.671875 43.675782h204.359375v122.285156c0 24.082031 19.589844 43.671875 43.671875 43.671875h146.429688c24.082031 0 43.675781-19.589844 43.675781-43.671875v-125.644531c16.066406-6.699219 26.859375-22.519531 26.859375-40.316407v-174.597656c0-4.171875-3.378906-7.554687-7.554687-7.554687-4.171876 0-7.554688 3.382812-7.554688 7.554687v174.597656c0 9.332032-4.542969 17.8125-11.75 23.074219v-168.691406c0-24.082031-19.59375-43.671875-43.675781-43.671875h-146.425781c-24.082032 0-43.675782 19.59375-43.675782 43.671875v107h-207.035156c-4.175781 0-7.554688 3.382813-7.554688 7.554687 0 4.171876 3.378907 7.554688 7.554688 7.554688h207.035156v17.878906h-134.164062c-4.171875 0-7.554688 3.382813-7.554688 7.554688s3.382813 7.554687 7.554688 7.554687h134.164062v19.085938h-204.359375c-15.75 0-28.5625-12.8125-28.5625-28.566407v-213.734374h478.449219v8.917968c0 4.171875 3.382812 7.554688 7.554688 7.554688zm-62.980469 391.789062h-146.425781c-15.75 0-28.566407-12.816406-28.566407-28.566406v-269.417969h203.558594v269.417969c0 15.75-12.816406 28.566406-28.566406 28.566406zm-146.425781-368.707031h146.425781c15.753906 0 28.566406 12.8125 28.566406 28.5625v27.050781h-203.558594v-27.050781c0-15.75 12.816407-28.5625 28.566407-28.5625zm-276.597657-54.664063v-27.050781c0-15.753906 12.8125-28.566406 28.5625-28.566406h421.324219c15.75 0 28.5625 12.8125 28.5625 28.566406v27.050781zm0 0"/><path d="m46.167969 22.632812c-11.1875 0-20.289063 9.101563-20.289063 20.285157 0 11.1875 9.101563 20.289062 20.289063 20.289062 11.183593 0 20.285156-9.101562 20.285156-20.289062 0-11.183594-9.101563-20.285157-20.285156-20.285157zm0 25.464844c-2.855469 0-5.179688-2.324218-5.179688-5.179687 0-2.851563 2.324219-5.175781 5.179688-5.175781 2.851562 0 5.175781 2.324218 5.175781 5.175781 0 2.855469-2.324219 5.179687-5.175781 5.179687zm0 0"/><path d="m94.628906 22.632812c-11.183594 0-20.285156 9.101563-20.285156 20.285157 0 11.1875 9.101562 20.289062 20.285156 20.289062 11.1875 0 20.285156-9.101562 20.285156-20.289062 0-11.183594-9.097656-20.285157-20.285156-20.285157zm0 25.464844c-2.851562 0-5.175781-2.324218-5.175781-5.179687 0-2.851563 2.324219-5.175781 5.175781-5.175781 2.855469 0 5.175782 2.324218 5.175782 5.175781 0 2.855469-2.320313 5.179687-5.175782 5.179687zm0 0"/><path d="m143.09375 22.632812c-11.183594 0-20.285156 9.101563-20.285156 20.285157 0 11.1875 9.097656 20.289062 20.285156 20.289062 11.183594 0 20.285156-9.101562 20.285156-20.289062 0-11.183594-9.101562-20.285157-20.285156-20.285157zm0 25.464844c-2.855469 0-5.175781-2.324218-5.175781-5.179687 0-2.851563 2.320312-5.175781 5.175781-5.175781 2.851562 0 5.175781 2.324218 5.175781 5.175781 0 2.855469-2.324219 5.179687-5.175781 5.179687zm0 0"/><path d="m294.203125 173.480469c11.183594 0 20.285156-9.097657 20.285156-20.285157 0-11.183593-9.101562-20.28125-20.285156-20.28125-11.1875 0-20.285156 9.097657-20.285156 20.28125 0 11.1875 9.097656 20.285157 20.285156 20.285157zm0-25.460938c2.851563 0 5.175781 2.324219 5.175781 5.175781 0 2.855469-2.324218 5.175782-5.175781 5.175782-2.855469 0-5.175781-2.320313-5.175781-5.175782 0-2.851562 2.320312-5.175781 5.175781-5.175781zm0 0"/><path d="m342.664062 173.480469c11.183594 0 20.285157-9.097657 20.285157-20.285157 0-11.183593-9.097657-20.28125-20.285157-20.28125-11.183593 0-20.285156 9.097657-20.285156 20.28125.003906 11.1875 9.101563 20.285157 20.285156 20.285157zm0-25.460938c2.855469 0 5.175782 2.324219 5.175782 5.175781 0 2.855469-2.320313 5.175782-5.175782 5.175782-2.851562 0-5.175781-2.320313-5.175781-5.175782.003907-2.851562 2.324219-5.175781 5.175781-5.175781zm0 0"/><path d="m391.128906 173.480469c11.183594 0 20.285156-9.097657 20.285156-20.285157 0-11.183593-9.097656-20.28125-20.285156-20.28125-11.183594 0-20.285156 9.097657-20.285156 20.28125 0 11.1875 9.101562 20.285157 20.285156 20.285157zm0-25.460938c2.855469 0 5.175782 2.324219 5.175782 5.175781 0 2.855469-2.320313 5.175782-5.175782 5.175782-2.851562 0-5.175781-2.320313-5.175781-5.175782 0-2.851562 2.324219-5.175781 5.175781-5.175781zm0 0"/><path d="m102.894531 124.234375c-11.140625 0-20.203125 9.0625-20.203125 20.203125 0 11.144531 9.0625 20.207031 20.203125 20.207031 11.144531 0 20.207031-9.0625 20.207031-20.207031 0-11.140625-9.0625-20.203125-20.207031-20.203125zm0 25.300781c-2.808593 0-5.097656-2.285156-5.097656-5.097656 0-2.808594 2.289063-5.097656 5.097656-5.097656 2.8125 0 5.101563 2.289062 5.101563 5.097656 0 2.8125-2.289063 5.097656-5.101563 5.097656zm0 0"/><path d="m53.578125 105.632812c-14.0625 0-25.503906 11.4375-25.503906 25.5v91.703126c0 14.0625 11.441406 25.503906 25.503906 25.503906h136.273437c14.0625 0 25.503907-11.441406 25.503907-25.503906v-91.703126c0-14.0625-11.441407-25.5-25.503907-25.5zm-6.496094 125.308594 29.925781-45.039062c.808594-1.21875 1.984376-1.398438 2.609376-1.398438h.003906c.625 0 1.796875.179688 2.605468 1.394532l31.449219 47.332031h-60.097656c-2.457031 0-4.714844-.859375-6.496094-2.289063zm142.769531 2.289063h-58.035156l-16.4375-24.734375 35.015625-52.703125c.8125-1.21875 1.984375-1.398438 2.613281-1.398438.628907 0 1.804688.179688 2.613282 1.394531l44.621094 67.160157c-.0625 5.679687-4.695313 10.28125-10.390626 10.28125zm10.394532-102.097657v64.523438l-32.042969-48.230469c-3.394531-5.097656-9.074219-8.140625-15.195313-8.140625-6.121093 0-11.800781 3.042969-15.195312 8.144532l-31.5 47.414062-11.5-17.304688c-3.386719-5.097656-9.066406-8.144531-15.191406-8.144531s-11.804688 3.042969-15.195313 8.144531l-21.242187 31.96875v-78.375c0-5.730468 4.664062-10.390624 10.394531-10.390624h136.273437c5.734376 0 10.394532 4.660156 10.394532 10.390624zm0 0"/><path d="m346.605469 268.695312c11.140625 0 20.207031-9.0625 20.207031-20.203124 0-11.144532-9.066406-20.207032-20.207031-20.207032-11.144531 0-20.207031 9.0625-20.207031 20.207032 0 11.140624 9.0625 20.203124 20.207031 20.203124zm0-25.300781c2.808593 0 5.097656 2.285157 5.097656 5.097657 0 2.808593-2.289063 5.097656-5.097656 5.097656-2.808594 0-5.097657-2.289063-5.097657-5.097656 0-2.8125 2.289063-5.097657 5.097657-5.097657zm0 0"/><path d="m433.5625 209.683594h-136.277344c-14.0625 0-25.5 11.441406-25.5 25.5v91.707031c0 14.058594 11.4375 25.5 25.5 25.5h136.277344c14.0625 0 25.5-11.441406 25.5-25.5v-91.707031c0-14.058594-11.4375-25.5-25.5-25.5zm-136.277344 15.109375h136.277344c5.730469 0 10.390625 4.660156 10.390625 10.390625v64.523437l-32.042969-48.230469c-3.390625-5.097656-9.070312-8.140624-15.191406-8.140624-6.125 0-11.804688 3.042968-15.199219 8.144531l-31.5 47.414062-11.496093-17.304687c-3.390626-5.101563-9.070313-8.144532-15.195313-8.144532s-11.804687 3.046876-15.195313 8.144532l-21.238281 31.96875v-78.371094c-.003906-5.734375 4.660157-10.394531 10.390625-10.394531zm-6.492187 110.199219 29.925781-45.039063c.808594-1.21875 1.980469-1.398437 2.609375-1.398437.625 0 1.800781.179687 2.609375 1.398437l31.445312 47.328125h-60.097656c-2.457031 0-4.710937-.859375-6.492187-2.289062zm142.769531 2.289062h-58.039062l-16.433594-24.734375 35.011718-52.699219c.8125-1.21875 1.988282-1.402344 2.617188-1.402344.625 0 1.800781.183594 2.609375 1.398438l44.621094 67.15625c-.0625 5.679688-4.695313 10.28125-10.386719 10.28125zm0 0"/><path d="m84.152344 309.050781c4.175781 0 7.554687-3.382812 7.554687-7.554687s-3.378906-7.554688-7.554687-7.554688h-42.652344c-4.175781 0-7.554688 3.382813-7.554688 7.554688s3.378907 7.554687 7.554688 7.554687zm0 0"/><path d="m451.507812 369.910156h-172.171874c-4.171876 0-7.550782 3.382813-7.550782 7.554688s3.378906 7.554687 7.550782 7.554687h172.171874c4.175782 0 7.554688-3.382812 7.554688-7.554687s-3.378906-7.554688-7.554688-7.554688zm0 0"/><path d="m451.507812 402.898438h-172.171874c-4.171876 0-7.550782 3.382812-7.550782 7.554687s3.378906 7.554687 7.550782 7.554687h172.171874c4.175782 0 7.554688-3.382812 7.554688-7.554687s-3.378906-7.554687-7.554688-7.554687zm0 0"/><path d="m412.148438 435.886719h-132.8125c-4.171876 0-7.550782 3.382812-7.550782 7.554687s3.378906 7.554688 7.550782 7.554688h132.8125c4.175781 0 7.554687-3.382813 7.554687-7.554688s-3.382813-7.554687-7.554687-7.554687zm0 0"/><path d="m180.59375 446.640625c-2.953125-2.953125-7.734375-2.953125-10.6875 0-2.949219 2.949219-2.949219 7.734375 0 10.683594l11.300781 11.296875c-35.742187-7.605469-63.949219-35.8125-71.558593-71.554688l11.300781 11.296875c1.472656 1.472657 3.40625 2.210938 5.339843 2.210938 1.933594 0 3.867188-.734375 5.34375-2.210938 2.949219-2.949219 2.949219-7.734375 0-10.683593l-26.230468-26.230469c-2.953125-2.953125-7.734375-2.953125-10.6875 0l-26.230469 26.230469c-2.953125 2.949218-2.953125 7.734374 0 10.683593 2.949219 2.949219 7.734375 2.949219 10.683594 0l14.539062-14.542969c7.023438 46.707032 44.035157 83.722657 90.742188 90.742188l-14.542969 14.539062c-2.949219 2.953126-2.949219 7.734376 0 10.683594 1.476562 1.476563 3.410156 2.214844 5.34375 2.214844s3.867188-.738281 5.34375-2.214844l26.230469-26.230468c2.953125-2.953126 2.953125-7.734376 0-10.683594zm0 0"/></svg>