<?xml version="1.0"?>
<svg xmlns="http://www.w3.org/2000/svg" height="512px" viewBox="0 -13 512 512" width="512px"><g><path d="m504.390625 59.394531v366.902344c0 28.605469-23.175781 51.796875-51.78125 51.796875h-393.222656c-28.601563 0-51.777344-23.191406-51.777344-51.796875v-366.902344c0-28.605469 23.175781-51.792969 51.777344-51.792969h393.222656c28.605469 0 51.78125 23.1875 51.78125 51.792969zm0 0" fill="#b4d2d7" data-original="#B4D2D7"/><path d="m504.390625 59.394531v49.613281h-496.78125v-49.613281c0-28.605469 23.175781-51.792969 51.777344-51.792969h393.222656c28.605469 0 51.78125 23.1875 51.78125 51.792969zm0 0" fill="#4c5072" data-original="#4C5072"/><path d="m80.503906 58.308594c0 10.078125-8.171875 18.25-18.253906 18.25s-18.253906-8.171875-18.253906-18.25c0-10.082032 8.171875-18.253906 18.253906-18.253906s18.253906 8.171874 18.253906 18.253906zm0 0" fill="#b4d2d7" data-original="#B4D2D7"/><path d="m149.988281 58.308594c0 10.078125-8.171875 18.25-18.25 18.25-10.082031 0-18.253906-8.171875-18.253906-18.25 0-10.082032 8.171875-18.253906 18.253906-18.253906 10.078125 0 18.25 8.171874 18.25 18.253906zm0 0" fill="#b4e7fd" data-original="#B4E7FD"/><path d="m219.476562 58.308594c0 10.078125-8.171874 18.25-18.25 18.25-10.082031 0-18.253906-8.171875-18.253906-18.25 0-10.082032 8.171875-18.253906 18.253906-18.253906 10.078126 0 18.25 8.171874 18.25 18.253906zm0 0" fill="#ff435e" data-original="#FF435E"/><path d="m440.832031 227.332031h-369.664062c-10.757813 0-19.480469-8.71875-19.480469-19.480469v-40.605468c0-10.757813 8.722656-19.480469 19.480469-19.480469h369.664062c10.761719 0 19.480469 8.722656 19.480469 19.480469v40.605468c0 10.761719-8.71875 19.480469-19.480469 19.480469zm0 0" fill="#b4e7fd" data-original="#B4E7FD"/><path d="m213.203125 430.667969h-143.242187c-10.09375 0-18.273438-8.183594-18.273438-18.273438v-122.589843c0-10.09375 8.183594-18.273438 18.273438-18.273438h143.242187c10.09375 0 18.277344 8.183594 18.277344 18.273438v122.585937c0 10.09375-8.183594 18.277344-18.277344 18.277344zm0 0" fill="#ff435e" data-original="#FF435E"/><path d="m442.039062 430.667969h-143.242187c-10.09375 0-18.273437-8.183594-18.273437-18.273438v-122.589843c0-10.09375 8.179687-18.273438 18.273437-18.273438h143.242187c10.09375 0 18.273438 8.183594 18.273438 18.273438v122.585937c0 10.09375-8.179688 18.277344-18.273438 18.277344zm0 0" fill="#f9d35a" data-original="#F9D35A"/><path d="m452.609375 0h-393.214844c-32.75 0-59.394531 26.644531-59.394531 59.394531v366.910157c0 32.75 26.644531 59.394531 59.394531 59.394531h53.46875c4.203125 0 7.605469-3.40625 7.605469-7.605469s-3.402344-7.601562-7.605469-7.601562h-53.46875c-24.363281 0-44.1875-19.824219-44.1875-44.1875v-309.691407h481.585938v309.691407c0 24.363281-19.820313 44.183593-44.183594 44.183593h-309.328125c-4.199219 0-7.605469 3.40625-7.605469 7.605469s3.40625 7.605469 7.605469 7.605469h309.328125c32.746094 0 59.390625-26.644531 59.390625-59.394531v-366.910157c0-32.75-26.644531-59.394531-59.390625-59.394531zm-437.402344 101.40625v-42.011719c0-24.363281 19.820313-44.1875 44.1875-44.1875h393.214844c24.363281 0 44.183594 19.824219 44.183594 44.1875v42.011719zm0 0" data-original="#000000" class="active-path" style="fill:#000000"/><path d="m62.25 32.449219c-14.257812 0-25.855469 11.601562-25.855469 25.855469 0 14.257812 11.597657 25.859374 25.855469 25.859374s25.855469-11.601562 25.855469-25.859374c0-14.253907-11.597657-25.855469-25.855469-25.855469zm0 36.507812c-5.871094 0-10.648438-4.777343-10.648438-10.648437 0-5.875 4.777344-10.648438 10.648438-10.648438s10.648438 4.777344 10.648438 10.648438-4.777344 10.648437-10.648438 10.648437zm0 0" data-original="#000000" class="active-path" style="fill:#000000"/><path d="m131.738281 32.449219c-14.257812 0-25.855469 11.601562-25.855469 25.855469 0 14.257812 11.597657 25.859374 25.855469 25.859374 14.257813 0 25.855469-11.601562 25.855469-25.859374 0-14.253907-11.597656-25.855469-25.855469-25.855469zm0 36.507812c-5.871093 0-10.648437-4.777343-10.648437-10.648437 0-5.875 4.777344-10.648438 10.648437-10.648438 5.871094 0 10.648438 4.777344 10.648438 10.648438s-4.777344 10.648437-10.648438 10.648437zm0 0" data-original="#000000" class="active-path" style="fill:#000000"/><path d="m201.226562 32.449219c-14.257812 0-25.859374 11.601562-25.859374 25.855469 0 14.257812 11.601562 25.859374 25.859374 25.859374 14.253907 0 25.855469-11.601562 25.855469-25.859374 0-14.253907-11.597656-25.855469-25.855469-25.855469zm0 36.507812c-5.875 0-10.648437-4.777343-10.648437-10.648437 0-5.875 4.777344-10.648438 10.648437-10.648438 5.871094 0 10.648438 4.777344 10.648438 10.648438s-4.777344 10.648437-10.648438 10.648437zm0 0" data-original="#000000" class="active-path" style="fill:#000000"/><path d="m71.167969 155.371094h304.671875c4.203125 0 7.605468-3.40625 7.605468-7.605469s-3.402343-7.601563-7.605468-7.601563h-304.671875c-14.933594 0-27.085938 12.148438-27.085938 27.082032v40.605468c0 14.933594 12.152344 27.085938 27.085938 27.085938h369.664062c14.933594 0 27.085938-12.152344 27.085938-27.085938v-40.605468c0-14.933594-12.148438-27.082032-27.085938-27.082032h-34.574219c-4.199218 0-7.605468 3.402344-7.605468 7.601563s3.40625 7.605469 7.605468 7.605469h34.574219c6.550781 0 11.878907 5.328125 11.878907 11.875v40.605468c0 6.550782-5.328126 11.878907-11.878907 11.878907h-369.664062c-6.550781 0-11.878907-5.328125-11.878907-11.878907v-40.605468c0-6.550782 5.328126-11.875 11.878907-11.875zm0 0" data-original="#000000" class="active-path" style="fill:#000000"/><path d="m44.082031 412.390625c0 14.269531 11.609375 25.878906 25.878907 25.878906h143.242187c14.269531 0 25.878906-11.609375 25.878906-25.878906v-122.585937c0-14.269532-11.609375-25.878907-25.878906-25.878907h-143.242187c-14.269532 0-25.878907 11.609375-25.878907 25.878907zm15.207031-122.585937c0-5.882813 4.789063-10.667969 10.671876-10.667969h143.242187c5.886719 0 10.671875 4.785156 10.671875 10.667969v122.585937c0 5.886719-4.785156 10.671875-10.671875 10.671875h-143.242187c-5.882813 0-10.667969-4.785156-10.667969-10.671875v-122.585937zm0 0" data-original="#000000" class="active-path" style="fill:#000000"/><path d="m298.796875 263.925781c-14.269531 0-25.878906 11.609375-25.878906 25.878907v122.585937c0 14.269531 11.609375 25.878906 25.878906 25.878906h143.242187c14.269532 0 25.878907-11.609375 25.878907-25.878906v-122.585937c0-14.269532-11.609375-25.878907-25.878907-25.878907zm153.914063 25.878907v122.585937c0 5.886719-4.789063 10.671875-10.671876 10.671875h-143.242187c-5.886719 0-10.671875-4.785156-10.671875-10.671875v-122.585937c0-5.882813 4.789062-10.667969 10.671875-10.667969h143.242187c5.882813 0 10.671876 4.785156 10.671876 10.667969zm0 0" data-original="#000000" class="active-path" style="fill:#000000"/></g> </svg>
