<svg xmlns="http://www.w3.org/2000/svg" data-name="Layer 1" viewBox="0 0 64 64" width="50" height="50"><path fill="#c5e4fa" d="M5 19H59V55H5z"/><path fill="#e3f2ff" d="M39.76 55L59 35.76 59 19.08 56.43 19.08 20.51 55 39.76 55zM8.9 55L16.6 55 52.52 19.08 44.82 19.08 8.9 55zM40.4 19.08L5.07 54.41 5 54.43 5 53.19 39.12 19.08 40.4 19.08z"/><path fill="#f9dd8f" d="M13 25H51V29H13z"/><path fill="#72caaf" d="M35 35H51V47H35z"/><path fill="#ced8ed" d="M5 9H59V19H5z"/><path fill="#8d6c9f" d="M55,18H51a1,1,0,0,0,0,2h4a1,1,0,0,0,0-2Z"/><path fill="#8d6c9f" d="M57,8H7a3,3,0,0,0-3,3V53a3,3,0,0,0,3,3H57a3,3,0,0,0,3-3V11A3,3,0,0,0,57,8Zm1,45a1,1,0,0,1-1,1H7a1,1,0,0,1-1-1V20H47a1,1,0,0,0,0-2H6V11a1,1,0,0,1,1-1H57a1,1,0,0,1,1,1Z"/><path fill="#8d6c9f" d="M20 12a1 1 0 0 0-1 1v2a1 1 0 0 0 2 0V13A1 1 0 0 0 20 12zM15 12a1 1 0 0 0-1 1v2a1 1 0 0 0 2 0V13A1 1 0 0 0 15 12zM10 12a1 1 0 0 0-1 1v2a1 1 0 0 0 2 0V13A1 1 0 0 0 10 12zM35 12a1 1 0 0 0-1 1v2a1 1 0 0 0 2 0V13A1 1 0 0 0 35 12zM40 12a1 1 0 0 0-1 1v2a1 1 0 0 0 2 0V13A1 1 0 0 0 40 12zM45 12a1 1 0 0 0-1 1v2a1 1 0 0 0 2 0V13A1 1 0 0 0 45 12zM50 16a1 1 0 0 0 1-1V13a1 1 0 0 0-2 0v2A1 1 0 0 0 50 16zM55 12a1 1 0 0 0-1 1v2a1 1 0 0 0 2 0V13A1 1 0 0 0 55 12zM25 12a1 1 0 0 0-1 1v2a1 1 0 0 0 2 0V13A1 1 0 0 0 25 12zM30 12a1 1 0 0 0-1 1v2a1 1 0 0 0 2 0V13A1 1 0 0 0 30 12zM51 24H13a1 1 0 0 0-1 1v4a1 1 0 0 0 1 1H51a1 1 0 0 0 1-1V25A1 1 0 0 0 51 24zm-1 4H14V26H50zM51 34H35a1 1 0 0 0-1 1V47a1 1 0 0 0 1 1H51a1 1 0 0 0 1-1V35A1 1 0 0 0 51 34zM50 46H36V36H50zM27 40a1 1 0 0 0 0-2H25a1 1 0 0 0 0 2zM13 40h8a1 1 0 0 0 0-2H13a1 1 0 0 0 0 2zM19 46H13a1 1 0 0 0 0 2h6a1 1 0 0 0 0-2zM29 34H13a1 1 0 0 0 0 2H29a1 1 0 0 0 0-2zM29 42H13a1 1 0 0 0 0 2H29a1 1 0 0 0 0-2z"/></svg>