<?xml version="1.0" encoding="utf-8"?>
<!-- Generator: Adobe Illustrator 22.0.1, SVG Export Plug-In . SVG Version: 6.00 Build 0)  -->
<svg version="1.1" xmlns="http://www.w3.org/2000/svg" xmlns:xlink="http://www.w3.org/1999/xlink" x="0px" y="0px"
	 viewBox="0 0 1100 800" style="enable-background:new 0 0 1100 800;" xml:space="preserve">
<style type="text/css">
	.st0{display:none;}
	.st1{display:inline;fill:#FFFFFF;}
	.st2{opacity:0.5;}
	.st3{fill:#EED5D5;}
	.st4{fill:#D67086;}
	.st5{fill:#CCAF5D;}
	.st6{fill:#292949;}
	.st7{fill:#5D66D3;}
	.st8{fill:#A2A4A7;}
	.st9{fill:#3B3387;}
	.st10{fill:#DDC8AC;}
	.st11{fill:#FFFFFF;}
	.st12{fill:#B5B7B8;}
	.st13{fill:#E1CFB5;}
	.st14{fill:#666666;}
	.st15{fill:#8CABEF;}
	.st16{fill:#B0B0B0;}
	.st17{opacity:0.21;}
	.st18{fill:#606060;}
	.st19{opacity:0.21;fill:#606060;}
	.st20{fill:#474EBB;}
	.st21{fill:#414BAA;}
	.st22{fill:#7F7F7F;}
	.st23{fill:#8E8E8E;}
	.st24{fill:#4E4E4E;}
	.st25{fill:#A39372;}
	.st26{fill:#DDDAE8;}
</style>
<g id="Background" class="st0">
	<rect class="st1" width="1100" height="800"/>
</g>
<g id="Shadow">
	<g class="st2">
		<path class="st3" d="M522,644.1c-28.2,0.1-56.4,0.8-84.5,3.9c-10.6,1.2-21,3.8-31.6,4.8c-21.2,2.1-42.1,6-63.4,7.8
			c-17.2,1.4-34.4,2.3-51.5,4.1c-16,1.7-33.8,1.3-49.7-1.5c-11.8-2.1-23.6-3.3-35.2-6.7c-13-3.8-27.1-6.5-40.6-6.4
			c-19.3,0.1-38,0.2-56.5,6.8c-6.5,2.3-14.4,6.2-19.3,11.1c-11.3,11.3-12.8,39.4-1.5,51.1c18.9,19.7,59.3,27.4,85.8,27.8
			c29.1,0.4,57.3-1.8,86.4-3c27-1.2,54-2.9,81.1-2.8c55.3,0.1,110.7,0,165.9-3.7c51.9-3.5,103.9-2.3,155.9-2.3
			c53.3,0,106.3,0.4,159.2,7.5c23.1,3.1,46.6,4.2,69.8,6.3c20.8,1.9,40.7,0,61.4-1.8c17.4-1.5,34.6-6,50.4-13.5
			c12.5-6,34.7-24.5,38.6-38.8c10.7-39.9-151.3-39-176.2-38.9c-27.8,0.1-55.9,1-83.7,0c-11.7-0.4-23.2-2.7-34.6-5.2
			c-11.4-2.5-22.8-1.9-34.4-2.9c-48.1-4.4-96.3-3.7-144.5-3.7C553.4,644.2,537.7,644.1,522,644.1z"/>
	</g>
</g>
<g id="Object">
	<g>
		<g>
			<g>
				<g>
					<g>
						<path class="st4" d="M142.3,298.6c21-4.1,25.1-26.7,25.5-29.4c0-0.2,0-0.4-0.1-0.5l-1.4-2.7l-4.9-9.7l-4.9-9.7l-1.4-2.7
							c-0.1-0.2-0.2-0.3-0.4-0.4c-2.4-1.3-22.9-11.5-38.8,2.9c-0.6,0.5-0.2,1.5,0.6,1.6c3.5,0.2,10.6,0.8,13.9,2.4
							c0.7,0.4,0.6,1.5-0.2,1.7c-4.7,1.1-17.1,5.1-23.5,17.4c-7.9,15.3-5.7,17.2-5.7,17.2l0.3-0.2l-0.3,0.2c0,0,0.2,2.9,17.2,5.6
							c13.7,2.2,24.3-5.4,28-8.4c0.6-0.5,1.7,0,1.5,0.8c-0.7,3.6-4.4,9.6-6.4,12.5C140.9,297.9,141.5,298.7,142.3,298.6z"/>
					</g>
					<g>
						<path class="st3" d="M149.1,288c14.9-2.5,17.1-19.6,17.3-21.7c0-0.1,0-0.3-0.1-0.4l-4.9-9.7l-4.9-9.7
							c-0.1-0.1-0.2-0.2-0.3-0.3c-1.8-1.1-16.8-9.5-27.7,1c-0.4,0.4-0.1,1.2,0.5,1.2c2.5,0.3,7.6,1,10,2.3c0.6,0.3,0.5,1.2-0.1,1.3
							c-3.3,0.7-12.1,3.3-16.3,12.5c-5.2,11.5-3.6,12.9-3.6,12.9s0.2,1.9,10.3,4.4c0.7,0.2,1.4,0.3,2.2,0.5
							c9.9,2.2,17.2-3.3,19.8-5.6c0.4-0.4,1.2,0,1.1,0.7c-0.4,2.7-2.9,7.2-4.2,9.4C148.1,287.4,148.5,288.1,149.1,288z"/>
					</g>
				</g>
				<g>
					<g>
						<path class="st5" d="M205.2,304c19.2-12.1,25-33.7,26.5-40.7l-47.9,9.6c0.2,0,0.4-0.1,0.6-0.1c0,0.1,0,0.3,0.1,0.4
							c-0.3,12.1-7.6,29-11.5,36.1C168.1,317.8,182,318.7,205.2,304z"/>
					</g>
					<g>
						<path class="st6" d="M168.2,252.8c-0.1-0.1-0.1-0.3-0.2-0.4l0,0c-7-14.2-6.8-21.5-6.3-24.1c-2.8,2.7-5.7,5.5-8.8,8.4
							c0,0-2.6,5.8,5.1,21.3c7.7,15.4,14,16.9,14,16.9c4-0.7,7.9-1.3,11.7-1.9l0.3-0.1c0,0,0,0,0,0l0,0
							C181.6,271.5,175.4,267.2,168.2,252.8z"/>
					</g>
					<g>
						<path class="st6" d="M205.2,304c19.2-12.1,25-33.7,26.5-40.7l-47.9,9.6c0.2,0,0.4-0.1,0.6-0.1c0,0.1,0,0.3,0.1,0.4
							c-0.3,12.1-7.6,29-11.5,36.1C168.1,317.7,182,318.6,205.2,304z"/>
					</g>
					<g>
						<path class="st7" d="M276.1,242.3c4.4-3.2,8.4-6.5,12-9.7c25.3-22.6,32.8-44.2,34.7-51.7c-1.3-1.2-2.4-2.6-3.3-4.2l0,0
							c0-0.1-0.1-0.1-0.1-0.2c-0.1-0.1-0.1-0.2-0.2-0.3c-0.7-1.4-1.1-2.8-1.4-4.2c-6.7-2.7-23.4-7.8-48.5-5
							c-8.4,0.9-17.8,2.7-28,5.8c-16.5,5-29.9,12.6-43.3,22.9c0,0,0,0-0.1,0l-23.1,20.6l-13.1,11.6c0,0,0.1,0.1,0.1,0.1
							c-0.1,0.1-0.1,0.1-0.2,0.2c-0.5,2.5-0.7,9.4,5.5,22.5c0.3,0.7,0.6,1.3,1,2c7.2,14.4,13.4,18.8,15.8,20l47.6-9.6c0,0,0,0,0,0
							l0,0c0,0,0,0,0,0C248,258.7,262.2,252.5,276.1,242.3z"/>
					</g>
					<g>
						<path class="st6" d="M334.8,172.9c2.5-2.3,3.2-4.2,2.8-5.1c0,0-0.1-0.1-0.1-0.1l0,0c-0.4-0.6-1.5-1-3.2-1
							c-0.7,0-1.5,0.1-2.4,0.3c-3.3,0.6-8.8,2.5-13.8,5c-0.1,0-0.1,0-0.2-0.1c0.3,1.4,0.7,2.9,1.4,4.2c0.1,0.1,0.1,0.2,0.2,0.3
							c0.9,1.7,2.1,3.2,3.4,4.4c0,0,0,0,0,0c0,0,0,0,0,0c0,0,0,0,0,0c4.4-2.3,8.7-5.1,11.2-7.2C334.3,173.4,334.6,173.1,334.8,172.9
							z"/>
					</g>
				</g>
				<g>
					<path class="st4" d="M278.6,196.7c-5.8-10.6-19.1-14.8-30.1-9.3c-11.3,5.6-15.9,19.3-10.2,30.5c5.6,11.2,19.3,15.7,30.5,10.1
						c2.1-1.1,4-2.4,5.6-4c7-6.7,9.2-17.4,4.7-26.6C278.9,197.2,278.7,197,278.6,196.7L278.6,196.7z"/>
				</g>
			</g>
			<g>
				<g>
					<path class="st8" d="M319.4,176.6L319.4,176.6C319.4,176.5,319.4,176.5,319.4,176.6c-0.1-0.1-0.1-0.2-0.1-0.2l0,0l0.1-0.1
						c0,0,0.1,0.1,0.1,0.1c0,0,0,0,0,0.1L319.4,176.6z"/>
				</g>
			</g>
		</g>
		<g>
			<g>
				<g>
					<g>
						<path class="st6" d="M253.2,308.6c0,0,6.8,3.4,8,21.3c1.2,17.9,5.3,28.9,5.3,28.9s-5.3,4-10.3,2.3c-4.9-1.7-6.7-1.9-6.6-9.3
							c0.1-7.4-4.2-41.6-4.2-41.6L253.2,308.6z"/>
					</g>
				</g>
			</g>
			<g>
				<g>
					<g>
						<path class="st6" d="M240.2,317.6c7,0.3,13.5,5.3,15.7,11.9c2.8-4.2,3.5-9.7,1.8-14.4c-1.7-4.7-5.9-8.5-10.7-9.8
							c-3.6,3.1-5.9,7.6-6.3,12.3L240.2,317.6z"/>
					</g>
				</g>
			</g>
			<g>
				<g>
					<polygon class="st4" points="231.8,360 210,367.9 194.2,382.3 193.9,317.9 174.2,321 167.6,395.3 188.7,413 231,398.7 					"/>
				</g>
			</g>
			<g>
				<g>
					<g>
						<g>
							<g>
								<polygon class="st6" points="203.8,683.4 203.1,689 213.2,696.3 219.2,691.5 214.6,685 204.5,677.8 								"/>
							</g>
						</g>
					</g>
					<g>
						<g>
							<g>
								<polygon class="st9" points="208.1,511.1 206,528.2 219.9,587.3 203.5,681.5 213.9,685.4 243.7,593.8 248.7,567 
									249.9,510.2 								"/>
							</g>
						</g>
					</g>
				</g>
				<g>
					<g>
						<g>
							<g>
								<polygon class="st9" points="288.3,532.1 262.5,689.9 252.5,689.7 253.1,588.1 236.5,516.5 								"/>
							</g>
						</g>
					</g>
					<g>
						<g>
							<g>
								<polygon class="st6" points="252.6,688.4 252.4,694.1 263.1,700 268.7,694.5 263.4,688.7 								"/>
							</g>
						</g>
					</g>
				</g>
				<g>
					<g>
						<g>
							<g>
								<path class="st4" d="M209.2,490.1c9.9-57.4,7.9-99.4,8.6-110.9c0.7-11.5,8.7-17.3,8.8-17.3c3.5-0.7,6.5-2.9,10.1-3.7
									c23.8-5.5,36.3,13.3,44.6,33.4c10.3,24.8,18.9,50.5,25.7,76.6c6,22.9,11.9,46,14.1,69.7c0.9,9.8,1.6,19-8.9,23.1
									c-16.8,6.5-35.4,5.9-53,7.6c-20.2,2-40.4,3.4-60.7,3.8C187.9,572.6,199.3,547.5,209.2,490.1z"/>
							</g>
						</g>
					</g>
				</g>
			</g>
			<g>
				<g>
					<polygon class="st10" points="176.5,320.9 167.8,311.8 171.2,296.3 179.7,296.5 181.9,310.1 186.2,312.8 186.1,319.4 					"/>
				</g>
			</g>
			<g>
				<g>
					<polygon class="st4" points="248.1,357.3 270.6,361.8 315.9,407.7 369.8,407 372.4,423.7 309.2,433.3 258.2,398.8 					"/>
				</g>
			</g>
			<g>
				<g>
					<polygon class="st11" points="253.6,358.6 256.3,419.9 226.3,361 235.5,357.9 242.1,356.1 					"/>
				</g>
			</g>
			<g>
				<g>
					<polygon class="st10" points="370.3,411.1 380.4,405.2 393,408.7 392.9,415.5 371.6,419 					"/>
				</g>
			</g>
			<g>
				<g>
					<g>
						<path class="st10" d="M255.5,323.4c-7.4-17.2-29.1-9.1-32.3,6.9c-1.8,9.1,2.7,25,13.5,25.4c0.5,1.6,1.4,4.5,2.8,5.3
							c1.6,0.9,5.5-1.2,7-1.9c0.4-0.2,0.9-0.4,1.1-0.8c0.3-0.5,0.1-1.6-0.1-2.8c1.2-0.3,2.3-0.9,3.5-1.5c4.8-2.9,7.5-8.5,7.9-14.2
							C259.4,334.2,257.8,328.6,255.5,323.4z"/>
					</g>
				</g>
			</g>
			<g>
				<g>
					<g>
						<path class="st6" d="M246.5,305.3c0,0,4.3,9.2-7.5,14.7c-11.8,5.5-17.7,17-13.3,26.8c4.4,9.8,15.3,15.3,11.1,19.1
							c-4.3,3.8-22.7,5.1-22.7,5.1s-18.9-33.8-7.8-52.7S238.4,294.1,246.5,305.3z"/>
					</g>
				</g>
			</g>
		</g>
		<g>
			<g>
				<polygon class="st6" points="343.7,679.8 342.8,686.8 356,695.8 364,689.6 357.8,681.6 344.6,672.7 				"/>
			</g>
			<g>
				<g>
					<polygon class="st12" points="343.2,677.4 353.4,587.1 341.1,485.9 343.9,464.4 398.8,462.3 400.8,497.3 391.6,587.2 
						356.9,682 					"/>
				</g>
			</g>
			<g>
				<polygon class="st6" points="387.4,363.8 415.6,368.9 480.7,384.4 476.6,406.2 410,405.2 				"/>
			</g>
			<g>
				<g>
					<polygon class="st12" points="439.2,472.5 439.3,563.6 420.9,681 407.7,680.8 400.5,572.3 383.5,463.7 					"/>
				</g>
				<g>
					<polygon class="st6" points="407.8,686.4 422,693.7 429.2,686.6 422.1,679.4 407.8,679.3 					"/>
				</g>
			</g>
			<g>
				<g>
					<path class="st6" d="M331.4,510.3c-0.2-3.9-0.3-7.2-0.4-8.4c-0.6-10.6-0.6-21.2-0.2-31.8c0.4-9.5-0.2-32.9,0.6-42.4
						c0.7-7.8,3.6-27.5,6.3-34.9c6.8-18.5,4-19.9,40.1-28.4c15.8-3.7,20.4,5.9,34.5,16.2c1.4,1,1.9,7.8,2.4,9.5
						c0.8,3.1,1.6,6.2,2.6,9.2c0.7,2.4,1.5,4.8,2.3,7.2l0,0c0,0,15.4,49,23.5,59c8.2,10,24.5,23.5,0.2,34.8
						c-4.3,1.8-8.7,3.6-13.2,4.7c0,0-20.7-0.5-31.3,0.5c-9.7,0.9-19.4,2.8-28.8,5.2c-6.3,1.6-12.7,3.8-18.1,7.2
						c-5.2,3.3-8.8,7.9-14,11.3c-0.5,0.3-1,0.7-1.7,0.6C333,529.8,331.9,518.6,331.4,510.3z"/>
				</g>
			</g>
			<g>
				<g>
					<path class="st13" d="M377.9,368.7c-1.5,1.5-5.5,3.2-10.4,3c-1,0-1.9-0.7-2.2-1.6c-0.9-2.6-1.6-5.3-2.1-8
						c-3.6,0-7.9-0.4-9.7-3.6c-0.5-1-0.7-2.2-0.9-3.3c-0.8-4.7-1.5-9.3-2.3-14c-0.3-1.6-0.5-3.3-0.1-4.9c0.7-2.8,3.1-4.7,5.6-6.1
						c6.4-3.5,14.3-4.6,21.1-2c1.8,0.7,3.6,1.7,4.8,3.2c1.9,2.3,2.2,5.5,2.4,8.5c0.2,2.8,0.4,5.5,0.6,8.3c0.2,3.2,0.3,6.9-2.2,8.9
						c-1.3,1.1-3.1,1.5-4.2,2.8C376.7,362.3,378.3,365.7,377.9,368.7z"/>
				</g>
				<g>
					<path class="st6" d="M402.1,311.4c0.3-1.3,0.6-2.6,1.1-3.9c1-2.7,2.5-5.3,3.1-8.2c0.6-2.9,0-6.3-2.5-7.9
						c-1.6-1-3.6-1.1-5.5-1.1c-6.2,0.3-12.4,2.3-17.6,5.7c-5,3.3-9,7.2-15.2,7.1c-5.8-0.2-9.2,1.9-14,5.7c-5.1,4.1-12.7,7.2-17,12
						c-1.8,2-2.9,4.5-3.5,7.1c-2.2,8.9,1.2,19,8.4,24.8c1.6,1.3,3.4,2.4,5.2,3.3c3.8,2,8.3,4.6,12.5,4.4c-1.1-3.4-7.8-13-6.2-16.6
						c2.6-5.8,12.4-7.5,17.9-8.1c6-0.7,12.3,1.5,18.1,0.4c4.2-0.8,8.6-4.4,11.2-7.7C401.6,324.3,401,316.2,402.1,311.4z"/>
				</g>
			</g>
		</g>
		<g>
			<g>
				<g id="XMLID_60_">
					<path class="st14" d="M544.8,522.3l-1,18.5c-0.3,6-5.3,10.6-11.2,10.3l-47.3-2.5c-5.9-0.3-10.3-5.4-10-11.4l1-18.5L544.8,522.3
						z"/>
				</g>
				<g>
					<path class="st15" d="M408.8,266.4c3.4-65,57.6-115,121-111.6s112,58.8,108.6,123.8c-1.2,23.1-8.9,44.3-21,61.9l0,0
						c-34.8,53.2-44.7,98.8-44.7,98.8l-57.8-3l-57.8-3c0,0-5-46.4-34-102.9l0,0C413,311.3,407.6,289.5,408.8,266.4z"/>
				</g>
				<g>
					<path class="st16" d="M574.1,439.2l-4.1,78.5c-0.2,3.3-2.8,5.8-6,5.6l-106.9-5.6c-3.1-0.2-5.5-3-5.3-6.2l4.1-78.5L574.1,439.2z
						"/>
				</g>
				<g class="st17">
					<path class="st18" d="M412,244.4c26.1,60,77.9,153.3,160.8,194.4c0,0.2-0.1,0.3-0.1,0.3l-57.8-3l-57.8-3c0,0-5-46.4-34-102.9
						l0,0c-10.3-18.8-15.6-40.7-14.4-63.8C409.2,258.8,410.3,251.5,412,244.4z"/>
				</g>
				<g>
					<g>
						<path class="st19" d="M619.2,287.2c3-56.8-39.5-105.1-94.8-108c-32.4-1.7-62,12.5-81.6,35.9c18.9-29.9,52.5-48.9,89.6-47
							c55.4,2.9,97.8,51.3,94.8,108c-1.2,23.6-10.1,44.9-24.1,61.5C612.4,323.1,618.2,305.8,619.2,287.2z"/>
					</g>
				</g>
				<g>
					<g>
						<polygon class="st20" points="537.3,437.3 559.2,287.3 538.9,302.8 523.5,274.5 504.9,300.2 486.7,283.4 492.7,434.9 
							486.7,434.6 480.2,269.2 504.1,291.2 524.2,263.3 540.8,293.8 567.1,273.7 543.3,437.6 						"/>
					</g>
				</g>
				<g>
					<g>
						<path class="st21" d="M545.4,422.6l-2.2,15l-5.9-0.3l2.7-18.5C541.8,420.1,543.6,421.4,545.4,422.6z"/>
					</g>
					<g>
						<path class="st21" d="M490.2,372.5l2.5,62.4l-5.9-0.3l-2.7-69.4C486,367.6,488.1,370.1,490.2,372.5z"/>
					</g>
				</g>
				<g>
					<g>
						
							<rect x="506.3" y="403.6" transform="matrix(5.271314e-02 -0.9986 0.9986 5.271314e-02 24.3271 951.3014)" class="st22" width="14.5" height="118.4"/>
					</g>
					<g>
						
							<rect x="504.7" y="434.6" transform="matrix(5.271403e-02 -0.9986 0.9986 5.271403e-02 -8.1343 978.9934)" class="st22" width="14.5" height="118.4"/>
					</g>
				</g>
				<g>
					<g>
						<path class="st23" d="M506.6,486.2l-53.4-2.8l0.9-16.5l32.9,1.7C493.6,475.3,500.2,481.1,506.6,486.2z"/>
					</g>
					<g>
						<path class="st23" d="M454.9,452.5l1-19.5l1.9,0.1c5.1,7.4,10.2,14.1,15.4,20.4L454.9,452.5z"/>
					</g>
					<g>
						<path class="st23" d="M564,523.3l-106.9-5.6c-3.1-0.2-5.5-3-5.3-6.2l0.7-13.6l77.2,4.1c15.2,8.9,29.1,14.1,40,17.2
							C568.9,521.7,566.6,523.5,564,523.3z"/>
					</g>
					<g>
						<path class="st14" d="M487,468.7l-32.9-1.7l0.8-14.5l18.3,1C477.8,458.9,482.4,464,487,468.7z"/>
					</g>
					<g>
						<path class="st14" d="M529.6,502l-77.2-4.1l0.8-14.5l53.4,2.8C514.5,492.5,522.2,497.7,529.6,502z"/>
					</g>
				</g>
				<g>
					<path class="st24" d="M475.7,529.9c12.6,13.9,38,19.2,46.4,20.6l-36.7-1.9c-5.9-0.3-10.3-5.4-10-11.4L475.7,529.9z"/>
				</g>
			</g>
			<g>
				<path class="st20" d="M529.3,137.3l-3.1-0.1c-1.7,0-3-1.4-3-3.1l0.9-31.2c0-1.7,1.4-3,3.1-3l3.1,0.1c1.7,0,3,1.4,3,3.1
					l-0.9,31.2C532.3,136.1,530.9,137.4,529.3,137.3z"/>
			</g>
			<g>
				<path class="st20" d="M478.1,142.9l-3,1.8c-1.3,0.8-3.1,0.4-3.9-1l-16.2-27.2c-0.8-1.3-0.4-3.1,1-3.9l3-1.8
					c1.3-0.8,3.1-0.4,3.9,1l16.2,27.2C479.9,140.3,479.5,142.1,478.1,142.9z"/>
			</g>
			<g>
				<path class="st20" d="M578.5,145.9l2.4,1.6c1.4,1,3.4,0.6,4.3-0.8l17.4-25.8c1-1.4,0.6-3.4-0.8-4.3l-2.4-1.6
					c-1.4-1-3.4-0.6-4.3,0.8l-17.4,25.8C576.7,143,577,144.9,578.5,145.9z"/>
			</g>
		</g>
		<g>
			<g>
				<path class="st13" d="M461.8,423.9l16.3,0.9l9.5-11l-5.2-4.3l-10.9,3.8l-3.1-2.1l-11.1,4.3C457.4,415.5,462,423.9,461.8,423.9z"
					/>
			</g>
			<g>
				<polygon class="st6" points="360.7,378.4 414.7,424.3 460.9,413.6 468,427 413.9,451.7 395.8,446.1 349.3,400.6 				"/>
			</g>
		</g>
		<g>
			<g>
				<g>
					<path class="st4" d="M982.9,190.3c0-17.7-14.3-32.2-32-32.2c-2.4,0-6,1.3-8.2,0c-1.8-1.1-2.5-3.6-3.9-5.1
						c-1.7-1.8-3.7-3.4-5.8-4.7c-4.3-2.6-9.4-4-14.4-4.1c-4.1,0-8.1,0.9-11.6,2.5c0,0,0,0-0.1,0c0,0,0,0,0,0
						c-0.2,0.1-0.4,0.2-0.7,0.3c0,0,0,0,0,0c-2.8,1.3-13.3,6.6-14.1,18.5c6.1-0.2,12.3,2.2,16.8,7c4.5-4.4,11-6.4,17.3-5.1
						c5,1,9.3,4,12.1,8.2c2.8,4.3,3.8,9.4,2.8,14.4c-0.1,0.5-0.5,0.8-0.9,0.8c-0.1,0-0.1,0-0.2,0c-0.5-0.1-0.8-0.6-0.7-1.1
						c1.9-9.3-4.1-18.4-13.4-20.3c-5.9-1.2-12.1,0.8-16.2,5.3c-0.4,0.4-1,0.4-1.4,0.1c0,0-0.1-0.1-0.1-0.1
						c-7.1-8.4-19.8-9.4-28.2-2.3c-0.4,0.3-1,0.3-1.3-0.1c-0.3-0.4-0.3-1,0.1-1.3c3.4-2.9,7.4-4.5,11.5-5
						c0.7-12.1,10.5-18.1,14.5-20c-6.6-5.5-15.1-8.8-24.4-8.9c-13.7,0-25.8,7.1-32.6,18c-2.3-0.5-4.7-0.8-7.1-0.8
						c-12,0-23.3,6.6-29.2,17c-1.5,2.6-2.5,5.4-3.3,8.3c-0.1,0.4-0.2,0.7-0.4,1.1c6.9-2.6,16.5-4.5,27.1-1.6
						c0.5,0.1,0.8,0.7,0.7,1.2c-0.1,0.5-0.7,0.8-1.2,0.7c-22-6.1-40.2,9.6-40.4,9.7c-0.1,0.1-0.3,0.2-0.5,0.2
						c-2.4,1.9-4.5,3.9-6.4,6.4c-5.5,7.3-8.5,16.3-8.5,25.4c-0.1,23.5,18.9,42.6,42.4,42.6c2.6,0,5.5-1.5,8-0.6
						c-1.4-3.8-2.2-8.6-0.6-13.6c0.2-0.5,0.7-0.8,1.2-0.6c0.5,0.2,0.8,0.7,0.6,1.2c-3.2,10.4,4.8,20.1,4.9,20.2
						c0.1,0.1,0.2,0.3,0.2,0.4c1.4,1.8,2.9,3.1,5,4.4c5.5,3.4,12,5.3,18.5,5.3c5.5,0,10.7-1.2,15.4-3.5c0.1-0.1,0.1-0.1,0.2-0.1
						c14.3-8,16.4-23.8,16.4-23.9c0.1-0.5,0.5-0.9,1.1-0.8c0.5,0.1,0.9,0.5,0.8,1.1c-0.1,0.6-1.8,13.5-12.8,22.3
						c6.6,7.6,16.4,12.5,27.2,12.5c5.3,0,10.8-1.5,15.8-3.5c5.3-2.1,9.1,5.8,11.1,9.2c3,5,4.6,11.1,8.8,15.3
						c6.1,6,12.7,0.7,13.4-6.7c0.4-4.2,0.3-8.4-0.2-12.6c-0.2-2.1-0.7-4.4,0.3-6.4c1.1-2.3,3.2-2,5.5-2.5c4.3-1,8.3-3,11.7-5.7
						c7-5.6,11.1-14.2,11.1-23.1c0-3.5-0.6-6.8-1.7-9.9c-1.5,0.6-4.4,1.7-8.5,1.9c-0.6,0-1.3,0.1-2,0.1c-5.3,0-12.6-1.4-20.7-7.2
						c-0.4-0.3-0.5-0.9-0.2-1.3c0.3-0.4,0.9-0.5,1.3-0.2c16.7,11.8,30.1,4.7,30.2,4.6c0.1,0,0.2-0.1,0.3-0.1
						c9.5-4.4,16.1-14.1,16.1-25.2C999.2,204.5,992.6,194.7,982.9,190.3z M876.9,238.5c-0.1,0-0.2,0.1-0.3,0.1
						c-0.4,0-0.8-0.2-0.9-0.6c-3.7-10.5-15.1-16.2-25.7-12.7c0,0-0.1,0-0.1,0c-0.1,0-0.1,0-0.2,0.1c-0.5,0.2-1-0.1-1.2-0.6
						c-0.1-0.3-0.1-0.6,0.1-0.8c-1.9-8.3-8.1-15.2-16.2-17.9c-13-4.5-27.2,2.5-31.7,15.5c-0.2,0.5-0.7,0.8-1.2,0.6
						c-0.5-0.2-0.8-0.7-0.6-1.2c4.8-14,20.1-21.5,34.1-16.7c8.6,3,15.1,10.1,17.3,18.9c11.3-3.2,23.3,3,27.1,14.2
						C877.7,237.8,877.4,238.3,876.9,238.5z M956.5,217.8c-0.3,0.4-0.9,0.5-1.3,0.1c-4.7-3.8-10.6-5.6-16.6-4.9
						c-6,0.6-11.4,3.6-15.2,8.3c-3.8,4.7-5.6,10.6-4.9,16.6c0.1,0.5-0.3,1-0.9,1.1c0,0-0.1,0-0.1,0c-0.5,0-0.9-0.4-0.9-0.9
						c-0.7-6.5,1.2-12.9,5.3-18c4.1-5.1,10-8.3,16.5-9c6.5-0.7,12.9,1.2,18,5.3C956.8,216.8,956.8,217.4,956.5,217.8z"/>
				</g>
			</g>
		</g>
		<g>
			<g>
				<g>
					<g>
						<polygon class="st25" points="747.5,374.7 737.3,367.8 740.1,363.3 748.1,366.5 748.4,363.8 756.4,370.7 754.1,375.7 						
							"/>
					</g>
				</g>
				<g>
					<g>
						<polygon class="st9" points="846.5,359.8 806.3,385.8 754.5,367.5 750.6,377.7 807,412.9 863.3,392.1 						"/>
					</g>
				</g>
			</g>
			<g id="XMLID_55_">
				<g id="XMLID_59_">
					<g>
						<polygon class="st6" points="847.3,680.3 847.3,686.1 832.6,693.5 825.2,686.1 832.6,678.7 833.5,678.7 833.8,680.3 						"/>
					</g>
				</g>
				<g id="XMLID_58_">
					<g>
						<polygon class="st6" points="847.3,680.3 833.8,680.3 833.5,678.7 847.3,678.7 						"/>
					</g>
				</g>
				<g>
					<g>
						<path class="st9" d="M867.8,355.7c15.8,1,32.1,9.3,36.6,24.7c0.4,1.3,0.7,2.6,0.8,3.9c0.6,7.9-1.8,13.8,0.5,21.7
							c2,6.9,3.8,13.9,5.1,21c1.9,10.2,3.7,20.4,5.1,30.6c1.5,11.3,2.6,22.5,2.9,33.7c0,1.2,0.3,4.7,0.4,8.8
							c0.3,8.6,0.1,20.2-3.5,20.6c-0.7,0.1-1.3-0.2-1.9-0.5c-4.7-2.3-8.4-5.2-12.5-7.8c-1.5-0.9-3-1.8-4.6-2.5
							c-3.2-1.5-6.7-2.7-10.3-3.7c6,0.3,6.7-0.8,6.7-0.8s-5.4-21.7-9.2-40.6c-2-9.7-3.5-18.7-3.6-23.6c-0.4-14.6-2.3-63-2.3-63
							l-9.1-18.5l-1.7,0c0.1,0,0.2,0,0.4,0C867.5,358.2,867.6,356.9,867.8,355.7z"/>
					</g>
					<g>
						<path class="st9" d="M800.4,511.2c0.9-9.6,1.9-19.2,3.1-28.7c2.4-19.1,5.6-38.1,11-56.6c2.1-7.1,4.5-14,6.8-21
							c2.9-8.5,5.8-16.9,8.7-25.4c3.6-10.5,9.7-17.9,20.4-21.6c1.9-0.7,3.9-1.2,6-1.5c0.1,0.2,0.1,0.4,0.1,0.7
							c0.1,1,0.4,2.1,1.1,2.9l-7,0.1c0,0-19.8,69.1-20.5,81c-0.3,4.5-1.2,14.4-2.2,24.8c-1.6,16.5-3.5,34.3-3.5,34.3
							s8.7,0.2,21.2,1.1c-0.9,0-1.9,0-2.8-0.1c-8.7-0.1-17.8,3.6-26.2,6c-0.6,0.2-1.2,0.3-1.8,0.5c-3.4,0.9-6.2,3.4-9,5.3
							C801.7,515.9,799.9,517,800.4,511.2z"/>
					</g>
				</g>
				<g>
					<g>
						<path class="st9" d="M816.7,504.7c8.4-2.4,17.4-6.1,26.2-6c0.9,0,1.9,0,2.8,0.1c0.8,0.1,1.6,0.1,2.4,0.2
							c5.9,0.5,12.4,1.1,19.3,1.9c0.3,0,0.7,0.1,1,0.1c8.8,1.9,14.5,2.6,18.2,2.8c3.6,0.9,7,2.1,10.3,3.7c1.6,0.8,3.1,1.6,4.6,2.6
							l0,9.4l-16.7,159.4h-13.7v1.6h-0.1l-15.1-106.9l-0.1-0.6l-8.3,107.5h-0.1v-1.6h-13.8L816,559L816.7,504.7z"/>
					</g>
				</g>
				<g id="XMLID_57_">
					<g>
						<polygon class="st6" points="884.6,678.7 885.7,678.7 893,686.1 885.7,693.5 870.9,686.1 870.9,680.3 884.5,680.3 						"/>
					</g>
				</g>
				<g id="XMLID_56_">
					<g>
						<polygon class="st6" points="884.6,678.7 884.5,680.3 870.9,680.3 870.9,678.7 						"/>
					</g>
				</g>
				<g>
					<g>
						<path class="st11" d="M824.4,500.1c0,0,8.7,0.2,21.2,1.1c0.8,0.1,1.6,0.1,2.4,0.2c5.9,0.5,12.4,1.1,19.3,1.9
							c0.3,0,0.7,0.1,1,0.1c8.8,1.9,14.5,2.6,18.2,2.8c6,0.3,6.7-0.8,6.7-0.8s-5.4-21.7-9.2-40.6c-2-9.7-3.5-18.7-3.6-23.6
							c-0.4-14.6-2.3-63-2.3-63l-9.1-18.5l-1.7,0c-2.3,0.3-4.6,0.5-7,0.8c-0.6,0.1-1.2,0.1-1.8,0c-0.3-0.1-0.5-0.2-0.8-0.4
							c-0.1-0.1-0.2-0.2-0.2-0.2l-7,0.1c0,0-19.8,69.1-20.5,81c-0.3,4.5-1.2,14.4-2.2,24.8C826.2,482.3,824.4,500.1,824.4,500.1z"/>
					</g>
				</g>
				<g>
					<g>
						<path class="st13" d="M845.3,334.3c0.5-1.9-0.4-3.8-0.8-5.6c-0.1-0.5-0.1-1-0.1-1.5c3.3-0.6,6.7-1.8,9.1-2.9
							c5.1-2.2,15-4.6,20.3-2c4.2,2.1,2.9,8.7,2.7,12.9c-0.1,1.1-0.1,2.2,0.1,3.2c0.3,1.1,0.9,1.8,1.3,2.7c-0.5,1.6-1.2,3.2-2.5,4.6
							c-3.4,3.8-6.8,5.6-7.7,9.9c-0.2,1.1-0.3,2.5-0.1,4c-0.1,0-0.2,0-0.4,0c-2.3,0.3-4.6,0.5-7,0.8c-0.6,0.1-1.2,0.1-1.8,0
							c-0.3-0.1-0.5-0.2-0.8-0.4c-0.1-0.1-0.2-0.2-0.2-0.2c-0.6-0.7-0.9-1.9-1.1-2.9c0-0.2-0.1-0.5-0.1-0.7
							c-0.9-3.9-5.2-5.7-7.5-9.1c-2.6-3.9-4-8.5-4.6-13.1c0-0.1,0-0.2,0-0.2C844.6,334.1,844.9,334.2,845.3,334.3z"/>
					</g>
				</g>
				<g>
					<g>
						<path class="st6" d="M828.7,312.2c-0.2,4.8,3.5,12.6,7.9,14.6c0.9,0.4,1.8,0.6,2.8,0.7c0.9,2.6,2.5,5.1,4.8,6.4
							c0.3,0.2,0.7,0.3,1.1,0.5c0.5-1.9-0.4-3.8-0.8-5.6c-0.1-0.5-0.1-1-0.1-1.5c3.3-0.6,6.7-1.8,9.1-2.9c5.1-2.2,15-4.6,20.3-2
							c4.2,2.1,2.9,8.7,2.7,12.9c-0.1,1.1-0.1,2.2,0.1,3.2c0.3,1.1,0.9,1.8,1.3,2.7c0.1,0.3,0.3,0.7,0.3,1c3.4-1.5,5.5-5.4,7.4-8.5
							c1-1.6,1.9-3.2,2.6-5c3.2-8,2-18.7-2.9-26.3c-1.4-2.2-3.1-4.2-5.1-5.4c-4.8-3-11.6-3.2-16.8-5.2c-7.3-2.8-11.1-0.3-18,1.9
							c-2.8,0.9-5.9,1.7-7.4,4.3c-0.8,1.4-0.9,3.2-1.7,4.7c-1.1,1.9-3,2.8-4.8,4C829.6,308,828.7,310,828.7,312.2z"/>
					</g>
				</g>
			</g>
			<g>
				<g>
					<g>
						<polygon class="st13" points="958.6,308.3 960.4,296.2 955.2,295.2 952.2,303.2 950,301.6 949.7,312.2 954.9,313.9 						"/>
					</g>
				</g>
				<g>
					<g>
						<polygon class="st9" points="880.8,371.3 927.1,359.2 948.6,308.6 958.7,312.6 946.6,378 893.2,405.5 						"/>
					</g>
				</g>
			</g>
		</g>
		<g>
			<g>
				<g>
					<g>
						<g>
							<polygon class="st6" points="769.6,682.2 770.2,688.6 758.1,696.3 751.1,690.5 756.8,683.5 768.9,675.8 							"/>
						</g>
						<g>
							<polygon class="st6" points="770,487.9 772,507.3 754.7,593.7 770,680.1 757.7,683.9 717.6,581.2 715.4,549.8 720.9,484.7 
															"/>
						</g>
					</g>
					<g>
						<g>
							<polygon class="st6" points="676.2,494.5 675.8,576.2 691.9,681.5 703.8,681.4 710.6,584.1 726.2,486.8 							"/>
						</g>
						<g>
							<polygon class="st6" points="703.7,686.4 691,692.9 684.5,686.5 690.9,680.1 703.7,680 							"/>
						</g>
					</g>
				</g>
				<g>
					<g>
						<path class="st26" d="M666.3,482.5c8.5-26.5,9.5-54.2,11.9-81.8c0.7-8.1,1.5-16.4,4.9-23.9c3.9-8.5,10.3-13,17.8-15.5
							c9.5-3.1,20.8-3,30.7-3.6c9.4-0.3,17.7,35,27.3,52.2c5.9,10.5,11.9,19.8,15.9,31.2c3.8,11,7.5,22.2,9.7,33.6
							c3.3,17.3,11.9,29.3,3.7,35.2c-0.7,0.2-1.5,0.5-2.2,0.7c-13.4,4.8-27.2,8.3-41.4,10.2c-12.5,1.7-25.2,2-37.8,0.7
							c-17.2-1.7-33.9-4.1-49-13.1C660.6,499.9,663.5,491.2,666.3,482.5z"/>
					</g>
				</g>
			</g>
		</g>
		<g>
			<g>
				
					<rect x="646.7" y="310.8" transform="matrix(-0.8944 0.4473 -0.4473 -0.8944 1469.1849 493.5409)" class="st20" width="59.2" height="218.8"/>
			</g>
			<g>
				<polygon class="st13" points="653.9,309.1 603.7,275.1 600.9,335.6 				"/>
			</g>
			<g>
				<polygon class="st6" points="622.6,287.8 603.7,275.1 602.7,297.8 				"/>
			</g>
			<g>
				<path class="st12" d="M719,554.2l39.3-19.7c3.8-1.9,5.3-6.5,3.4-10.2l-10-19.5l-53,26.5l10,19.5
					C710.7,554.6,715.3,556.1,719,554.2z"/>
			</g>
			<g>
				<polygon class="st11" points="698.8,531.3 751.7,504.8 746.8,494.9 693.6,521 				"/>
			</g>
		</g>
		<g>
			<g>
				<g>
					<polygon class="st25" points="734.5,465.1 724.9,473.6 721.1,469.7 726.4,462.4 723.7,461.3 732.8,455 737.3,458.6 					"/>
				</g>
			</g>
			<g>
				<g>
					<polygon class="st26" points="737,393.3 753.6,413.1 729,456.1 738.4,462.7 788.8,414.6 749.6,358.9 					"/>
				</g>
			</g>
		</g>
		<g>
			<g>
				<path class="st25" d="M736.2,331.5c-5.4-16.2-29-21.8-34.4-3c-1.6,5.6-2.6,11.6-1.5,17.4c1.1,5.8,4.7,11.3,10,13.7
					c0,0,0.1,0,0.1,0c-0.2,1.5-0.4,3-0.6,4.5c0,0.3-0.1,0.7,0.1,0.9c0.2,0.3,0.6,0.4,1,0.4c1.8,0.3,3.6,0.5,5.4,0.8
					c0.9,0.1,1.8,0.3,2.7,0c1.9-0.6,2.6-2.8,2.7-4.8c0-0.5,0-0.9,0-1.4C732.2,356.4,739.7,342,736.2,331.5z"/>
			</g>
			<g>
				<g>
					<path class="st6" d="M707.4,303.9c-4.3-0.6-8,3.5-12,5.7c-3.3,1.8-7.1,2.3-10.5,3.8c-3.4,1.5-6.8,4.7-6.9,8.6
						c-3.5-1.8-7.3-3.7-11.2-2.9c-3.9,0.8-7.5,5.4-6,9.3c1.4,3.4,5.9,4.2,7.4,7.6c2.4,5.4-4,13.7,0.3,17.2c1,0.9,2.5,1.1,3.5,1.9
						c1.3,1.1,1.7,3,2.3,4.6c2.6,7.6,10.2,12.5,17.7,11.5c4.7-2.2,8.4-6.7,10.1-11.9c2-6.2-1.3-8.4-1.9-14.3
						c-0.6-6.4,1.4-13.2,5.5-18.2c2.6-3.2,6.4-6,10.4-6.4c1.6-0.2,1.1,1.2,2.9-0.1c0.8-0.5,1.8-2.6,2.1-3.5
						C716.7,313.4,713.1,304.7,707.4,303.9z"/>
				</g>
				<g>
					<path class="st6" d="M754.2,312.2c2.2,0.6,4.6,0.5,6.8,1.5c3.2,1.4,3,4.7,3.9,7.6c1,3.2,2.5,7.5,4.6,9.9
						c1.5,1.8,3.6,2.8,5.5,4.2c1.8,1.4,3.5,3.4,3.5,5.9c0,2.4-1.6,4.5-1.8,6.8c-0.3,3.5,0.3,5.3-0.8,8.9c-0.6,1.8-1.2,3.8-2.6,5.1
						c-1.8,1.7-4.4,1.6-6.7,1.2c-2.3-0.4-4.6-1-6.9-0.3c-4.9,1.6-4,6.6-5.3,10.7c-2,6.3-9.3,10-14.9,7.7c-4.7-1.9-7.5-7.4-7.3-12.8
						c0.1-2.7,1.2-5.3,1.3-8c0.1-2.6-1.4-6.3,1-8.3c0.6-0.5,1.3-0.8,1.8-1.4c0.4-0.5,0.7-1.1,0.8-1.7c0.5-2.2,0-4.5-1.3-6.2
						c-0.9-1.2-2.2-2.1-2.8-3.5c-0.6-1.7-0.1-3.6,0-5.4c0.3-4.4-2.1-8.7-5.8-10.4c-2.4-1.1-4.6-1.8-6.7-3.5
						c-0.3-0.3-5.1-4.5-5.3-3.6c0.2-1.6,1.2-3,2.1-4.3c1.6-2.1,3.3-4.2,5.5-5.4c7.1-4.1,7.4,5.4,13.1,4.2c1.4-0.3,2.4-1.6,3.6-2.3
						c2.3-1.4,5.2-0.9,7.6,0.2C749.5,309.9,751.7,311.5,754.2,312.2z"/>
				</g>
			</g>
		</g>
		<g>
			<polygon class="st25" points="660.5,460.3 667.5,458.8 676.3,465.5 669.7,473.2 663.1,467.8 			"/>
		</g>
	</g>
	<g>
		<path class="st6" d="M125.6,215.1c8,1.1,25.7,5.4,35.6,12.2c0.2,0.2,0.4,0.4,0.5,0.6l36.2-32.2c-6.3-3-27.2-11.5-48.7-3.3
			C123.6,202.1,116,213.8,125.6,215.1z"/>
	</g>
</g>
</svg>
